<svg t="1609395345415" class="icon" viewBox="0 0 1024 1024" version="1.1" xmlns="http://www.w3.org/2000/svg" p-id="4941" width="128" height="128"><path d="M605.66527 375.275525A94.391127 94.391127 0 1 1 511.274143 282.6006a93.533026 93.533026 0 0 1 94.391127 92.674925z m-283.173382 0a187.924154 187.924154 0 0 0 132.576629 177.626939 12.871517 12.871517 0 0 1 9.010062 12.442467v214.52529a13.300568 13.300568 0 0 0 13.300568 12.871517h67.789992a13.300568 13.300568 0 0 0 13.300568-12.871517v-20.594428a13.300568 13.300568 0 0 1 13.300568-12.871518h21.023478a13.300568 13.300568 0 0 0 13.300568-12.871517v-68.219042a13.300568 13.300568 0 0 0-13.300568-12.871517h-21.452529a13.300568 13.300568 0 0 1-13.300568-12.871518v-74.22575a12.871517 12.871517 0 0 1 9.439113-12.442467 185.34985 185.34985 0 0 0 132.576629-177.626939 188.782255 188.782255 0 0 0-377.56451 0zM520.713256 1.57247l441.922096 148.880551a30.033541 30.033541 0 0 1 20.594428 28.317338v366.409195a409.743303 409.743303 0 0 1-254.856044 379.709762l-214.52529 96.10733a30.891642 30.891642 0 0 1-25.743034 0l-198.650418-90.958723A407.168999 407.168999 0 0 1 39.318506 555.476768V178.770359a30.033541 30.033541 0 0 1 20.594428-28.317338L500.976929 1.57247a31.749743 31.749743 0 0 1 19.736327 0z" p-id="4942" fill="#ffffff"></path></svg>