<svg t="1610326717882" class="icon" viewBox="0 0 1024 1024" version="1.1" xmlns="http://www.w3.org/2000/svg" p-id="5669" width="128" height="128"><path d="M663.2 447.2c84 10.4 153.6-60.8 142.4-144-7.2-57.6-52.8-103.2-109.6-110.4-84-10.4-154.4 60-143.2 144 7.2 57.6 53.6 103.2 110.4 110.4z m-326.4 0c84 10.4 153.6-60.8 142.4-144-7.2-57.6-53.6-103.2-110.4-110.4-84-10.4-154.4 60-143.2 144 8 57.6 53.6 103.2 111.2 110.4zM348 512c-94.4 0-284 48.8-284 145.6V816c0 8.8 7.2 16 16 16h536c8.8 0 16-7.2 16-16V657.6C632 560.8 442.4 512 348 512z m322.4 0c-12 0-25.6 0.8-40 2.4 48 34.4 81.6 81.6 81.6 143.2V816c0 8.8 7.2 16 16 16h216c8.8 0 16-7.2 16-16V657.6C960 560.8 767.2 512 670.4 512z" p-id="5670" fill="#ffffff"></path></svg>