<svg t="1610326769734" class="icon" viewBox="0 0 1170 1024" version="1.1" xmlns="http://www.w3.org/2000/svg" p-id="7863" width="128" height="128"><path d="M410.331429 176.054857C410.331429 78.774857 488.594286 0 585.142857 0s174.811429 78.848 174.811429 176.128A175.542857 175.542857 0 0 1 585.142857 352.256a175.542857 175.542857 0 0 1-174.811428-176.274286z m393.728 627.126857c0.073143-81.481143 65.682286-147.602286 146.651428-147.602285A147.017143 147.017143 0 0 1 1097.142857 803.328 147.017143 147.017143 0 0 1 950.564571 950.857143a147.017143 147.017143 0 0 1-146.505142-147.675429zM585.142857 950.857143a147.017143 147.017143 0 0 1-146.432-147.675429 147.017143 147.017143 0 0 1 146.578286-147.602285 147.017143 147.017143 0 0 1 146.432 147.748571A147.017143 147.017143 0 0 1 585.069714 950.857143zM73.142857 803.181714a147.017143 147.017143 0 0 1 146.578286-147.602285c80.969143 0 146.505143 66.194286 146.505143 147.748571A147.163429 147.163429 0 0 1 219.574857 950.857143 147.017143 147.017143 0 0 1 73.142857 803.181714z m477.842286-475.355428h68.315428v366.884571h-68.315428V327.826286zM185.490286 690.102857V545.718857c0-38.034286 30.573714-68.754286 68.315428-68.754286h662.674286c37.741714 0 68.315429 30.72 68.315429 68.754286v144.384h-68.315429V545.718857H253.805714v144.384h-68.242285z" p-id="7864" fill="#ffffff"></path></svg>